<svg width="16" height="16" viewBox="0 0 16 16" fill="none" xmlns="http://www.w3.org/2000/svg">
<g clip-path="url(#clip0)">
<path d="M5 8C5 6.89543 4.10457 6 3 6C1.89543 6 1 6.89543 1 8C1 9.10457 1.89543 10 3 10C4.10457 10 5 9.10457 5 8Z" fill="#333333" stroke="#333333" stroke-width="1.3333" stroke-linejoin="round"/>
<path d="M15 8C15 6.89543 14.1046 6 13 6C11.8954 6 11 6.89543 11 8C11 9.10457 11.8954 10 13 10C14.1046 10 15 9.10457 15 8Z" stroke="#333333" stroke-width="1.3333" stroke-linejoin="round"/>
<path d="M4.5 8L11 8" stroke="#333333" stroke-width="1.3333" stroke-linejoin="round"/>
</g>
<defs>
<clipPath id="clip0">
<rect width="16" height="16" fill="white" transform="translate(0 16) rotate(-90)"/>
</clipPath>
</defs>
</svg>
