<svg width="12" height="12" viewBox="0 0 12 12" fill="none" xmlns="http://www.w3.org/2000/svg">
<path fill-rule="evenodd" clip-rule="evenodd" d="M5.3842 6.0203L2.13125 9.27325C1.95625 9.44825 1.95625 9.73425 2.13125 9.90925C2.30675 10.0843 2.59275 10.0843 2.76725 9.90925L6.02031 6.65642L9.27337 9.90948C9.44837 10.0845 9.73437 10.0845 9.90937 9.90948C10.0844 9.73398 10.0844 9.44798 9.90937 9.27348L6.65645 6.02032L9.90975 2.76725C10.0843 2.59275 10.0843 2.30625 9.90975 2.13125C9.73425 1.95625 9.44825 1.95625 9.27325 2.13125L6.02033 5.38417L2.76737 2.13098C2.59287 1.95648 2.30637 1.95648 2.13137 2.13098C1.95637 2.30648 1.95637 2.59248 2.13137 2.76748L5.3842 6.0203Z" fill="#999999"/>
<mask id="mask0" mask-type="alpha" maskUnits="userSpaceOnUse" x="2" y="2" width="9" height="9">
<path fill-rule="evenodd" clip-rule="evenodd" d="M5.3842 6.0203L2.13125 9.27325C1.95625 9.44825 1.95625 9.73425 2.13125 9.90925C2.30675 10.0843 2.59275 10.0843 2.76725 9.90925L6.02031 6.65642L9.27337 9.90948C9.44837 10.0845 9.73437 10.0845 9.90937 9.90948C10.0844 9.73398 10.0844 9.44798 9.90937 9.27348L6.65645 6.02032L9.90975 2.76725C10.0843 2.59275 10.0843 2.30625 9.90975 2.13125C9.73425 1.95625 9.44825 1.95625 9.27325 2.13125L6.02033 5.38417L2.76737 2.13098C2.59287 1.95648 2.30637 1.95648 2.13137 2.13098C1.95637 2.30648 1.95637 2.59248 2.13137 2.76748L5.3842 6.0203Z" fill="white"/>
</mask>
<g mask="url(#mask0)">
</g>
</svg>
